<svg xmlns="http://www.w3.org/2000/svg" version="1.1" xmlns:xlink="http://www.w3.org/1999/xlink" xmlns:svgjs="http://svgjs.dev/svgjs" width="1000" height="1000" viewBox="0 0 1000 1000"><rect width="1000" height="1000" fill="#ffffff"></rect><g transform="matrix(0.7,0,0,0.7,149.84897959183667,150.19913061224486)"><svg viewBox="0 0 343 343" data-background-color="#ffffff" preserveAspectRatio="xMidYMid meet" height="999" width="1000" xmlns="http://www.w3.org/2000/svg" xmlns:xlink="http://www.w3.org/1999/xlink"><g id="tight-bounds" transform="matrix(1,0,0,1,0.0740000000000407,0.07400000000001228)"><svg viewBox="0 0 342.85155851775386 342.85155851775386" height="342.85155851775386" width="342.85155851775386"><g><svg></svg></g><g><svg viewBox="0 0 342.85155851775386 342.85155851775386" height="342.85155851775386" width="342.85155851775386"><g><path d="M0 171.426c0-94.676 76.75-171.426 171.426-171.426 94.676 0 171.426 76.75 171.426 171.426 0 94.676-76.75 171.426-171.426 171.426-94.676 0-171.426-76.75-171.426-171.426zM171.426 339.541c92.848 0 168.115-75.268 168.115-168.115 0-92.848-75.268-168.115-168.115-168.116-92.848 0-168.115 75.268-168.116 168.116 0 92.848 75.268 168.115 168.116 168.115z" data-fill-palette-color="tertiary" fill="#35185a" stroke="transparent"></path><ellipse rx="164.56874808852186" ry="164.56874808852186" cx="171.42577925887693" cy="171.42577925887693" fill="#35185a" stroke="transparent" stroke-width="0" fill-opacity="1" data-fill-palette-color="tertiary"></ellipse></g><g transform="matrix(1,0,0,1,64.84655864529837,123.37426055456623)"><svg viewBox="0 0 213.1584412271571 96.10303740862138" height="96.10303740862138" width="213.1584412271571"><g><svg viewBox="0 0 213.1584412271571 96.10303740862138" height="96.10303740862138" width="213.1584412271571"><g><svg viewBox="0 0 213.1584412271571 96.10303740862138" height="96.10303740862138" width="213.1584412271571"><g transform="matrix(1,0,0,1,0,59.39553258117505)"><svg viewBox="0 0 213.1584412271571 36.70750482744633" height="36.70750482744633" width="213.1584412271571"><g><svg viewBox="0 0 213.1584412271571 36.70750482744633" height="36.70750482744633" width="213.1584412271571"><g><svg viewBox="0 0 213.1584412271571 36.70750482744633" height="36.70750482744633" width="213.1584412271571"><g transform="matrix(1,0,0,1,0,0)"><svg width="213.1584412271571" viewBox="3.049999952316284 -35.5 209.02999877929688 36" height="36.70750482744633" data-palette-color="#ffffff"><path d="M27.05-25.95L27.05-25.95Q27.05-20.75 22.55-18.05L22.55-18.05Q25-17.15 26.65-14.95 28.3-12.75 28.3-8.72 28.3-4.7 25.33-2.35 22.35 0 16.8 0L16.8 0 5 0Q4.15 0 3.6-0.58 3.05-1.15 3.05-2.1L3.05-2.1 3.05-34.1Q3.05-34.65 3.23-34.83 3.4-35 3.95-35L3.95-35 15.35-35Q27.05-35 27.05-25.95ZM13.7-26.9L12.65-26.9 12.65-20.35 12.9-20.35Q17.7-20.35 17.7-23.55L17.7-23.55Q17.7-25.3 16.78-26.1 15.85-26.9 13.7-26.9L13.7-26.9ZM13.7-14.45L12.65-14.45 12.65-7.95 13.55-7.95Q15.7-7.95 16.7-8.75 17.7-9.55 17.7-11.3 17.7-13.05 16.78-13.75 15.85-14.45 13.7-14.45L13.7-14.45ZM34.12-2.95Q31-6.4 31-12.5 31-18.6 34.12-22.05 37.25-25.5 42.55-25.5 47.85-25.5 50.95-22.05 54.05-18.6 54.05-12.5 54.05-6.4 50.95-2.95 47.85 0.5 42.55 0.5 37.25 0.5 34.12-2.95ZM42.57-17.15Q39.75-17.15 39.75-12.55 39.75-7.95 42.57-7.95 45.4-7.95 45.4-12.55 45.4-17.15 42.57-17.15ZM59.77-2.95Q56.65-6.4 56.65-12.5 56.65-18.6 59.77-22.05 62.9-25.5 68.2-25.5 73.5-25.5 76.59-22.05 79.7-18.6 79.7-12.5 79.7-6.4 76.59-2.95 73.5 0.5 68.2 0.5 62.9 0.5 59.77-2.95ZM68.22-17.15Q65.4-17.15 65.4-12.55 65.4-7.95 68.22-7.95 71.05-7.95 71.05-12.55 71.05-17.15 68.22-17.15ZM83.24-0.3L83.24-34.6Q83.24-35.4 87.79-35.4L87.79-35.4Q92.04-35.25 92.04-34.75L92.04-34.75 92.04-15.55 96.99-24.7Q97.34-25.45 101.24-25.45 105.14-25.45 106.24-24.95L106.24-24.95 99.74-14.35 107.24-0.3Q107.34-0.1 105.37 0.03 103.39 0.15 102.09 0.15L102.09 0.15Q97.29 0.15 96.94-0.3L96.94-0.3 91.99-11.4 91.99-0.35Q91.99 0.3 87.62 0.3 83.24 0.3 83.24-0.3L83.24-0.3ZM109.84-9L109.84-9Q113.89-6.55 116.24-6.55L116.24-6.55Q117.74-6.55 117.74-7.6L117.74-7.6Q117.74-8.35 115.14-9.55L115.14-9.55Q108.89-12.1 108.89-17.9L108.89-17.9Q108.89-21.6 111.59-23.55 114.29-25.5 118.07-25.5 121.84-25.5 124.47-24.7 127.09-23.9 127.09-22.6L127.09-22.6Q127.09-21.5 126.02-19.7 124.94-17.9 124.54-17.75L124.54-17.75Q122.39-18.95 119.89-18.95L119.89-18.95Q118.54-18.95 118.54-18L118.54-18Q118.54-17.4 119.07-16.98 119.59-16.55 120.99-15.93 122.39-15.3 123.32-14.8 124.24-14.3 125.39-13.4L125.39-13.4Q127.79-11.5 127.79-8.45L127.79-8.45Q127.79-4.45 125.14-1.98 122.49 0.5 117.14 0.5L117.14 0.5Q113.59 0.5 110.69-0.7 107.79-1.9 107.79-4L107.79-4Q107.79-5.4 108.47-6.95 109.14-8.5 109.84-9ZM139.64-16.55L139.64-0.35Q139.64 0.1 135.46 0.1 131.29 0.1 131.29-0.6L131.29-0.6 131.29-34.85Q131.29-35.2 132.84-35.35 134.39-35.5 135.44-35.5L135.44-35.5Q139.64-35.5 139.64-34.6L139.64-34.6 139.64-24.6Q142.44-25.45 143.89-25.45L143.89-25.45Q147.69-25.45 149.89-23.43 152.09-21.4 152.09-15.9L152.09-15.9 152.09-0.4Q152.09 0.05 148.19 0.05L148.19 0.05Q143.79-0.1 143.79-0.45L143.79-0.45 143.79-15.15Q143.79-17.6 142.19-17.6L142.19-17.6Q141.09-17.6 139.64-16.55L139.64-16.55ZM175.24-1.35L175.24-1.35Q172.09 0.5 167.14 0.5 162.19 0.5 158.79-2.88 155.39-6.25 155.39-12.23 155.39-18.2 158.66-21.85 161.94-25.5 166.94-25.5 171.94-25.5 174.66-22.95 177.39-20.4 177.39-16.75L177.39-16.75Q177.39-8.65 168.09-8.65L168.09-8.65 164.64-8.65Q164.64-7.15 165.46-6.58 166.29-6 167.89-6L167.89-6Q171.39-6 174.54-7.6L174.54-7.6Q174.59-7.65 174.99-6.9L174.99-6.9Q176.19-4.75 176.19-3.28 176.19-1.8 175.24-1.35ZM168.99-15.8L168.99-15.8Q168.99-17.9 166.94-17.9L166.94-17.9Q165.99-17.9 165.31-17.32 164.64-16.75 164.64-15.65L164.64-15.65 164.64-14.1 167.34-14.1Q168.99-14.1 168.99-15.8ZM189.73-34.65L189.73-0.4Q189.73 0.05 184.63 0.05L184.63 0.05Q180.63 0 180.63-0.35L180.63-0.35 180.63-34.4Q180.63-35.15 185.48-35.15L185.48-35.15Q189.73-35 189.73-34.65L189.73-34.65ZM196.18-0.6L196.18-18.35 193.73-18.35Q192.98-18.35 192.98-21.68 192.98-25 193.73-25L193.73-25 196.18-25 196.18-26.1Q196.18-31.4 198.41-33.43 200.63-35.45 204.63-35.45 208.63-35.45 211.68-34L211.68-34Q212.08-33.85 212.08-32.93 212.08-32 211.23-29.95 210.38-27.9 209.78-27.6L209.78-27.6Q208.08-28.65 206.28-28.65L206.28-28.65Q204.33-28.65 204.33-26.05L204.33-26.05 204.33-25 208.48-25Q209.38-25 209.38-21.8L209.38-21.8Q209.38-18.3 208.23-18.3L208.23-18.3 205.03-18.3 205.03-0.6Q205.03 0 200.61 0 196.18 0 196.18-0.6L196.18-0.6Z" opacity="1" transform="matrix(1,0,0,1,0,0)" fill="#ffffff" class="undefined-text-0" data-fill-palette-color="quaternary" id="text-0"></path></svg></g></svg></g></svg></g></svg></g><g transform="matrix(1,0,0,1,81.89103310273879,0)"><svg viewBox="0 0 49.37637502167954 50.72977167153083" height="50.72977167153083" width="49.37637502167954"><g><svg xmlns="http://www.w3.org/2000/svg" xmlns:xlink="http://www.w3.org/1999/xlink" version="1.1" x="0" y="0" viewBox="3 1.711355447769165 94.00005340576172 96.57657623291016" enable-background="new 0 0 100 100" xml:space="preserve" height="50.72977167153083" width="49.37637502167954" class="icon-icon-0" data-fill-palette-color="quaternary" id="icon-0"><path d="M65.454 3.129c-0.026-0.735-0.647-1.442-1.385-1.417L50.721 2.185c-0.738 0.026-1.307 0.858-1.281 1.597l0.321 9.046 16.017-0.569L65.454 3.129z" fill="#ffffff" data-fill-palette-color="quaternary"></path><rect x="51.172" y="17.86" transform="matrix(0.9994 -0.0353 0.0353 0.9994 -1.82 2.1228)" width="16.026" height="69.45" fill="#ffffff" data-fill-palette-color="quaternary"></rect><path d="M52.745 97.213c0.026 0.73 0.636 1.096 1.375 1.074l13.348-0.475c0.738-0.026 1.317-0.517 1.292-1.252l-0.149-4.216-16.016 0.563L52.745 97.213z" fill="#ffffff" data-fill-palette-color="quaternary"></path><path d="M3 96.743c0 0.735 0.597 1.336 1.335 1.336h13.355c0.738 0 1.336-0.601 1.336-1.336V39.314H3V96.743z" fill="#ffffff" data-fill-palette-color="quaternary"></path><path d="M19.027 13.938c0-0.738-0.598-1.335-1.336-1.335H4.336C3.598 12.603 3 13.201 3 13.938v9.349h16.027V13.938z" fill="#ffffff" data-fill-palette-color="quaternary"></path><path d="M45.738 24.753c0-0.738-0.597-1.335-1.335-1.335H25.705c-0.738 0-1.335 0.597-1.335 1.335v9.219h21.369V24.753z" fill="#ffffff" data-fill-palette-color="quaternary"></path><path d="M24.37 44.657v52.086c0 0.735 0.597 1.336 1.335 1.336h18.698c0.738 0 1.335-0.601 1.335-1.336V44.657H24.37z" fill="#ffffff" data-fill-palette-color="quaternary"></path><path d="M81.102 96.926c0.104 0.735 0.777 1.241 1.513 1.138l13.22-1.879c0.73-0.104 1.252-0.673 1.153-1.408l-8.833-62.25-15.87 2.254L81.102 96.926z" fill="#ffffff" data-fill-palette-color="quaternary"></path><path d="M86.09 17.979c-0.104-0.73-0.777-1.237-1.508-1.132l-13.225 1.875c-0.73 0.102-1.252 0.673-1.148 1.403l1.325 9.362 15.87-2.251L86.09 17.979z" fill="#ffffff" data-fill-palette-color="quaternary"></path></svg></g></svg></g><g></g></svg></g></svg></g></svg></g></svg></g><defs></defs></svg><rect width="342.85155851775386" height="342.85155851775386" fill="none" stroke="none" visibility="hidden"></rect></g></svg></g></svg>